<svg xmlns="http://www.w3.org/2000/svg" xmlns:xlink="http://www.w3.org/1999/xlink" width="500" zoomAndPan="magnify" viewBox="0 0 375 374.999991" height="500" preserveAspectRatio="xMidYMid meet" version="1.0"><defs><g/><clipPath id="c042287dd3"><path d="M 154 177 L 221 177 L 221 206.621094 L 154 206.621094 Z M 154 177 " clip-rule="nonzero"/></clipPath><clipPath id="496e846a0e"><path d="M 135.414062 143 L 239.664062 143 L 239.664062 199 L 135.414062 199 Z M 135.414062 143 " clip-rule="nonzero"/></clipPath></defs><path fill="#8293a4" d="M 157.277344 180.296875 C 157.273438 180.425781 157.273438 180.558594 157.273438 180.6875 C 157.273438 193.382812 170.816406 203.675781 187.523438 203.675781 C 204.230469 203.675781 217.773438 193.382812 217.773438 180.6875 C 217.773438 180.558594 217.769531 180.425781 217.765625 180.296875 L 157.277344 180.296875 " fill-opacity="1" fill-rule="nonzero"/><g clip-path="url(#c042287dd3)"><path fill="#100f0d" d="M 160.460938 183.257812 C 162.183594 193.089844 173.664062 200.714844 187.523438 200.714844 C 201.382812 200.714844 212.863281 193.089844 214.585938 183.257812 Z M 187.523438 206.636719 C 178.796875 206.636719 170.5625 204.027344 164.335938 199.296875 C 157.867188 194.382812 154.304688 187.773438 154.304688 180.6875 C 154.304688 180.554688 154.308594 180.417969 154.3125 180.285156 L 154.375 177.335938 L 220.667969 177.335938 L 220.734375 180.300781 C 220.738281 180.429688 220.742188 180.558594 220.742188 180.6875 C 220.742188 187.773438 217.179688 194.382812 210.710938 199.296875 C 204.484375 204.027344 196.246094 206.636719 187.523438 206.636719 " fill-opacity="1" fill-rule="nonzero"/></g><path fill="#8293a4" d="M 229.859375 106.324219 C 226.941406 109.234375 216.371094 109.238281 216.371094 109.238281 C 216.371094 109.238281 216.375 98.691406 219.292969 95.777344 C 222.210938 92.867188 226.941406 92.867188 229.859375 95.777344 C 232.777344 98.691406 232.777344 103.410156 229.859375 106.324219 " fill-opacity="1" fill-rule="nonzero"/><path fill="#100f0d" d="M 224.574219 96.558594 C 223.421875 96.558594 222.269531 96.996094 221.390625 97.871094 C 220.453125 98.808594 219.734375 102.492188 219.457031 106.15625 C 223.132812 105.878906 226.824219 105.164062 227.761719 104.230469 C 229.519531 102.476562 229.519531 99.625 227.761719 97.871094 C 226.882812 96.996094 225.730469 96.558594 224.574219 96.558594 Z M 213.402344 112.203125 L 213.402344 109.238281 C 213.40625 106.476562 213.683594 97.191406 217.195312 93.683594 C 221.265625 89.625 227.886719 89.625 231.957031 93.683594 C 236.027344 97.746094 236.027344 104.355469 231.957031 108.414062 C 228.445312 111.921875 219.140625 112.199219 216.371094 112.199219 L 213.402344 112.203125 " fill-opacity="1" fill-rule="nonzero"/><path fill="#8293a4" d="M 145.1875 106.324219 C 148.105469 109.234375 158.675781 109.238281 158.675781 109.238281 C 158.675781 109.238281 158.671875 98.691406 155.753906 95.777344 C 152.835938 92.867188 148.105469 92.867188 145.1875 95.777344 C 142.265625 98.691406 142.265625 103.410156 145.1875 106.324219 " fill-opacity="1" fill-rule="nonzero"/><path fill="#100f0d" d="M 147.285156 104.230469 C 148.222656 105.164062 151.914062 105.882812 155.585938 106.15625 C 155.308594 102.488281 154.589844 98.804688 153.65625 97.871094 C 151.898438 96.117188 149.039062 96.117188 147.285156 97.871094 C 145.527344 99.625 145.527344 102.476562 147.285156 104.230469 Z M 161.644531 112.203125 L 158.671875 112.199219 C 155.90625 112.199219 146.601562 111.921875 143.089844 108.414062 C 139.019531 104.355469 139.019531 97.746094 143.089844 93.683594 C 147.15625 89.625 153.78125 89.625 157.851562 93.683594 C 161.363281 97.191406 161.640625 106.476562 161.640625 109.238281 L 161.644531 112.203125 " fill-opacity="1" fill-rule="nonzero"/><path fill="#8293a4" d="M 223.082031 149.007812 L 151.964844 149.007812 L 151.964844 125.152344 C 151.964844 112.859375 161.949219 102.894531 174.265625 102.894531 L 200.777344 102.894531 C 213.09375 102.894531 223.082031 112.859375 223.082031 125.152344 L 223.082031 149.007812 " fill-opacity="1" fill-rule="nonzero"/><path fill="#586e82" d="M 189.101562 102.894531 L 174.265625 102.894531 C 161.949219 102.894531 151.964844 112.859375 151.964844 125.152344 L 151.964844 149.007812 L 166.800781 149.007812 L 166.800781 125.152344 C 166.800781 112.859375 176.785156 102.894531 189.101562 102.894531 " fill-opacity="1" fill-rule="nonzero"/><path fill="#100f0d" d="M 154.933594 146.046875 L 220.113281 146.046875 L 220.113281 125.152344 C 220.113281 114.511719 211.441406 105.855469 200.777344 105.855469 L 174.265625 105.855469 C 163.605469 105.855469 154.933594 114.511719 154.933594 125.152344 Z M 226.046875 151.964844 L 149 151.964844 L 149 125.152344 C 149 111.246094 160.332031 99.933594 174.265625 99.933594 L 200.777344 99.933594 C 214.710938 99.933594 226.046875 111.246094 226.046875 125.152344 L 226.046875 151.964844 " fill-opacity="1" fill-rule="nonzero"/><path fill="#b4c2cc" d="M 216.054688 195.539062 C 197.035156 190.578125 178.011719 190.578125 158.988281 195.539062 C 147.664062 195.539062 138.484375 186.378906 138.484375 175.078125 L 138.484375 166.90625 C 138.484375 155.605469 147.664062 146.445312 158.988281 146.445312 L 216.054688 146.445312 C 227.378906 146.445312 236.558594 155.605469 236.558594 166.90625 L 236.558594 175.078125 C 236.558594 186.378906 227.378906 195.539062 216.054688 195.539062 " fill-opacity="1" fill-rule="nonzero"/><g clip-path="url(#496e846a0e)"><path fill="#100f0d" d="M 187.523438 188.875 C 197.175781 188.875 206.832031 190.109375 216.421875 192.574219 C 225.921875 192.378906 233.589844 184.605469 233.589844 175.078125 L 233.589844 166.90625 C 233.589844 157.257812 225.726562 149.40625 216.054688 149.40625 L 158.988281 149.40625 C 149.320312 149.40625 141.453125 157.257812 141.453125 166.90625 L 141.453125 175.078125 C 141.453125 184.605469 149.121094 192.378906 158.625 192.574219 C 168.214844 190.109375 177.867188 188.875 187.523438 188.875 Z M 216.054688 198.5 L 215.675781 198.5 L 215.304688 198.402344 C 196.871094 193.59375 178.175781 193.59375 159.738281 198.402344 L 159.371094 198.5 L 158.988281 198.5 C 146.050781 198.5 135.519531 187.992188 135.519531 175.078125 L 135.519531 166.90625 C 135.519531 153.992188 146.050781 143.484375 158.988281 143.484375 L 216.054688 143.484375 C 228.996094 143.484375 239.523438 153.992188 239.523438 166.90625 L 239.523438 175.078125 C 239.523438 187.992188 228.996094 198.5 216.054688 198.5 " fill-opacity="1" fill-rule="nonzero"/></g><path fill="#8293a4" d="M 206.980469 165.003906 C 206.980469 167.746094 204.753906 169.964844 202.007812 169.964844 C 199.261719 169.964844 197.035156 167.746094 197.035156 165.003906 C 197.035156 162.265625 199.261719 160.042969 202.007812 160.042969 C 204.753906 160.042969 206.980469 162.265625 206.980469 165.003906 " fill-opacity="1" fill-rule="nonzero"/><path fill="#100f0d" d="M 202.007812 161.523438 C 200.082031 161.523438 198.519531 163.085938 198.519531 165.003906 C 198.519531 166.925781 200.082031 168.488281 202.007812 168.488281 C 203.933594 168.488281 205.496094 166.925781 205.496094 165.003906 C 205.496094 163.085938 203.933594 161.523438 202.007812 161.523438 Z M 202.007812 171.445312 C 198.449219 171.445312 195.550781 168.558594 195.550781 165.003906 C 195.550781 161.453125 198.449219 158.5625 202.007812 158.5625 C 205.570312 158.5625 208.464844 161.453125 208.464844 165.003906 C 208.464844 168.558594 205.570312 171.445312 202.007812 171.445312 " fill-opacity="1" fill-rule="nonzero"/><path fill="#8293a4" d="M 178.007812 165.003906 C 178.007812 167.746094 175.785156 169.964844 173.035156 169.964844 C 170.289062 169.964844 168.0625 167.746094 168.0625 165.003906 C 168.0625 162.265625 170.289062 160.042969 173.035156 160.042969 C 175.785156 160.042969 178.007812 162.265625 178.007812 165.003906 " fill-opacity="1" fill-rule="nonzero"/><path fill="#100f0d" d="M 173.035156 161.523438 C 171.113281 161.523438 169.546875 163.085938 169.546875 165.003906 C 169.546875 166.925781 171.113281 168.488281 173.035156 168.488281 C 174.960938 168.488281 176.527344 166.925781 176.527344 165.003906 C 176.527344 163.085938 174.960938 161.523438 173.035156 161.523438 Z M 173.035156 171.445312 C 169.476562 171.445312 166.582031 168.558594 166.582031 165.003906 C 166.582031 161.453125 169.476562 158.5625 173.035156 158.5625 C 176.597656 158.5625 179.492188 161.453125 179.492188 165.003906 C 179.492188 168.558594 176.597656 171.445312 173.035156 171.445312 " fill-opacity="1" fill-rule="nonzero"/><path fill="#100f0d" d="M 203.742188 128.988281 C 203.742188 131.730469 201.515625 133.949219 198.769531 133.949219 C 196.023438 133.949219 193.796875 131.730469 193.796875 128.988281 C 193.796875 126.246094 196.023438 124.023438 198.769531 124.023438 C 201.515625 124.023438 203.742188 126.246094 203.742188 128.988281 " fill-opacity="1" fill-rule="nonzero"/><path fill="#100f0d" d="M 181.25 128.988281 C 181.25 131.730469 179.023438 133.949219 176.277344 133.949219 C 173.53125 133.949219 171.304688 131.730469 171.304688 128.988281 C 171.304688 126.246094 173.53125 124.023438 176.277344 124.023438 C 179.023438 124.023438 181.25 126.246094 181.25 128.988281 " fill-opacity="1" fill-rule="nonzero"/><g fill="#ffffff" fill-opacity="1"><g transform="translate(100.842431, 235.284477)"><g><path d="M 17.878906 0 L 17.878906 -21 L 12.75 -21 L 12.75 -13.078125 L 6.628906 -13.078125 L 6.628906 -21 L 1.5 -21 L 1.5 0 L 6.628906 0 L 6.628906 -8.128906 L 12.75 -8.128906 L 12.75 0 Z M 17.878906 0 "/></g></g></g><g fill="#ffffff" fill-opacity="1"><g transform="translate(120.522411, 235.284477)"><g><path d="M 0.660156 -19.800781 C 0.660156 -18.03125 2.101562 -17.160156 3.539062 -17.160156 C 4.921875 -17.160156 6.328125 -18.03125 6.328125 -19.800781 C 6.328125 -21.660156 4.890625 -22.558594 3.449219 -22.558594 C 2.070312 -22.558594 0.660156 -21.628906 0.660156 -19.800781 Z M 1.109375 -16.230469 L 5.910156 -16.230469 L 5.910156 0 L 1.109375 0 Z M 1.109375 -16.230469 "/></g></g></g><g fill="#ffffff" fill-opacity="1"><g transform="translate(128.5624, 235.284477)"><g><path d="M 9.78125 0.269531 C 15.058594 0.269531 17.640625 -3.449219 17.640625 -7.890625 C 17.640625 -12.359375 14.96875 -16.441406 9.839844 -16.441406 C 8.28125 -16.441406 6.691406 -15.988281 5.578125 -14.609375 L 5.578125 -16.230469 L 0.898438 -16.230469 L 0.898438 4.738281 L 5.578125 4.738281 L 5.578125 -1.5 C 6.660156 -0.269531 8.191406 0.269531 9.78125 0.269531 Z M 9.269531 -11.910156 C 11.671875 -11.910156 12.898438 -9.960938 12.898438 -8.011719 C 12.898438 -6.058594 11.699219 -4.078125 9.269531 -4.078125 C 7.230469 -4.078125 5.578125 -5.851562 5.578125 -8.011719 C 5.578125 -10.171875 7.230469 -11.910156 9.269531 -11.910156 Z M 9.269531 -11.910156 "/></g></g></g><g fill="#ffffff" fill-opacity="1"><g transform="translate(148.062375, 235.284477)"><g><path d="M 9.78125 0.269531 C 15.058594 0.269531 17.640625 -3.449219 17.640625 -7.890625 C 17.640625 -12.359375 14.96875 -16.441406 9.839844 -16.441406 C 8.28125 -16.441406 6.691406 -15.988281 5.578125 -14.609375 L 5.578125 -16.230469 L 0.898438 -16.230469 L 0.898438 4.738281 L 5.578125 4.738281 L 5.578125 -1.5 C 6.660156 -0.269531 8.191406 0.269531 9.78125 0.269531 Z M 9.269531 -11.910156 C 11.671875 -11.910156 12.898438 -9.960938 12.898438 -8.011719 C 12.898438 -6.058594 11.699219 -4.078125 9.269531 -4.078125 C 7.230469 -4.078125 5.578125 -5.851562 5.578125 -8.011719 C 5.578125 -10.171875 7.230469 -11.910156 9.269531 -11.910156 Z M 9.269531 -11.910156 "/></g></g></g><g fill="#ffffff" fill-opacity="1"><g transform="translate(167.562351, 235.284477)"><g><path d="M 17.429688 -8.101562 C 17.429688 -13.890625 13.109375 -16.769531 8.789062 -16.769531 C 4.441406 -16.769531 0.121094 -13.890625 0.121094 -8.101562 C 0.121094 -2.339844 4.46875 0.539062 8.789062 0.539062 C 13.109375 0.539062 17.429688 -2.339844 17.429688 -8.101562 Z M 4.859375 -8.101562 C 4.859375 -10.859375 6.808594 -12.238281 8.789062 -12.238281 C 10.949219 -12.238281 12.691406 -10.859375 12.691406 -8.101562 C 12.691406 -5.371094 10.738281 -4.019531 8.789062 -4.019531 C 6.808594 -4.019531 4.859375 -5.371094 4.859375 -8.101562 Z M 4.859375 -8.101562 "/></g></g></g><g fill="#ffffff" fill-opacity="1"><g transform="translate(186.552332, 235.284477)"><g/></g></g><g fill="#ffffff" fill-opacity="1"><g transform="translate(194.082327, 235.284477)"><g><path d="M 21.601562 0.121094 L 28.410156 -20.371094 L 28.410156 -21 L 23.28125 -21 L 19.261719 -8.851562 L 16.648438 -16.199219 L 12.300781 -16.199219 L 9.660156 -8.851562 L 5.640625 -21 L 0.511719 -21 L 0.511719 -20.371094 L 7.320312 0.121094 L 11.851562 0.121094 L 14.429688 -7.171875 L 17.070312 0.121094 Z M 21.601562 0.121094 "/></g></g></g><g fill="#ffffff" fill-opacity="1"><g transform="translate(223.362297, 235.284477)"><g><path d="M 8.28125 -16.5 C 3 -16.5 0.421875 -12.78125 0.421875 -8.339844 C 0.421875 -3.871094 3.089844 0.210938 8.21875 0.210938 C 9.78125 0.210938 11.371094 -0.238281 12.480469 -1.621094 L 12.480469 0 L 17.191406 0 L 17.191406 -16.230469 L 12.480469 -16.230469 L 12.480469 -14.550781 C 11.429688 -15.898438 9.871094 -16.5 8.28125 -16.5 Z M 8.789062 -4.320312 C 6.390625 -4.320312 5.160156 -6.269531 5.160156 -8.21875 C 5.160156 -10.199219 6.359375 -12.148438 8.789062 -12.148438 C 10.828125 -12.148438 12.480469 -10.378906 12.480469 -8.21875 C 12.480469 -6.058594 10.828125 -4.320312 8.789062 -4.320312 Z M 8.789062 -4.320312 "/></g></g></g><g fill="#ffffff" fill-opacity="1"><g transform="translate(242.652274, 235.284477)"><g><path d="M 5.339844 -15.148438 L 5.160156 -16.230469 L 0.898438 -16.230469 L 0.898438 0 L 5.609375 0 L 5.609375 -9 C 5.609375 -11.191406 7.351562 -12.089844 9.058594 -12.121094 C 9.601562 -12.121094 10.171875 -12.03125 10.648438 -11.878906 L 10.710938 -16.320312 C 10.078125 -16.46875 9.449219 -16.558594 8.878906 -16.558594 C 7.558594 -16.558594 6.390625 -16.140625 5.339844 -15.148438 Z M 5.339844 -15.148438 "/></g></g></g><g fill="#ffffff" fill-opacity="1"><g transform="translate(254.952257, 235.284477)"><g><path d="M 17.160156 -8.160156 C 17.160156 -13.710938 12.960938 -16.46875 8.789062 -16.46875 C 4.558594 -16.46875 0.390625 -13.710938 0.390625 -8.160156 C 0.390625 -2.609375 4.558594 0.179688 8.761719 0.179688 C 12.121094 0.179688 15.449219 -1.589844 16.679688 -5.128906 L 11.550781 -5.128906 C 10.859375 -4.378906 9.871094 -4.019531 8.820312 -4.019531 C 7.378906 -4.050781 5.910156 -4.800781 5.339844 -6.300781 L 16.980469 -6.300781 C 17.101562 -6.898438 17.160156 -7.5 17.160156 -8.160156 Z M 12 -9.988281 L 5.519531 -9.988281 C 6 -11.578125 7.289062 -12.359375 8.699219 -12.359375 C 10.230469 -12.359375 11.550781 -11.609375 12 -9.988281 Z M 12 -9.988281 "/></g></g></g><g fill="#ffffff" fill-opacity="1"><g transform="translate(122.907021, 256.284358)"><g><path d="M 4.246094 -6.839844 C 3.105469 -6.871094 1.753906 -6.644531 0.554688 -6.449219 C 0.269531 -6.390625 0.0742188 -6.121094 0.136719 -5.835938 C 0.179688 -5.550781 0.449219 -5.371094 0.734375 -5.414062 C 1.230469 -5.503906 1.769531 -5.59375 2.296875 -5.671875 C 2.28125 -5.609375 2.265625 -5.566406 2.265625 -5.519531 C 2.054688 -3.929688 2.070312 -1.949219 1.980469 -0.480469 C 1.964844 -0.179688 2.175781 0.0585938 2.460938 0.0742188 C 2.746094 0.105469 3 -0.121094 3.015625 -0.40625 C 3.105469 -1.859375 3.105469 -3.808594 3.300781 -5.386719 C 3.316406 -5.519531 3.269531 -5.65625 3.195312 -5.761719 C 3.554688 -5.789062 3.898438 -5.804688 4.230469 -5.804688 C 4.515625 -5.789062 4.753906 -6.03125 4.753906 -6.316406 C 4.769531 -6.601562 4.53125 -6.839844 4.246094 -6.839844 Z M 4.246094 -6.839844 "/></g></g></g><g fill="#ffffff" fill-opacity="1"><g transform="translate(130.917142, 256.284358)"><g><path d="M 2.113281 -5.128906 C 1.230469 -4.949219 0.78125 -4.066406 0.570312 -3.285156 C 0.105469 -1.636719 0.480469 0.148438 2.324219 0.691406 C 2.609375 0.765625 2.894531 0.613281 2.984375 0.328125 C 3.058594 0.0585938 2.894531 -0.226562 2.625 -0.316406 C 1.828125 -0.539062 1.5 -1.140625 1.441406 -1.828125 C 2.28125 -1.890625 3.238281 -1.828125 3.839844 -2.324219 C 5.113281 -3.628906 3.613281 -5.445312 2.113281 -5.128906 Z M 3.121094 -3.089844 C 2.878906 -2.941406 2.070312 -2.925781 1.546875 -2.878906 C 1.574219 -3.195312 1.726562 -3.511719 1.890625 -3.765625 C 1.996094 -3.929688 2.128906 -4.066406 2.324219 -4.109375 C 2.910156 -4.230469 3.570312 -3.601562 3.121094 -3.089844 Z M 3.121094 -3.089844 "/></g></g></g><g fill="#ffffff" fill-opacity="1"><g transform="translate(138.582259, 256.284358)"><g><path d="M 1.980469 -4.035156 C 2.191406 -4.078125 2.429688 -3.960938 2.625 -3.886719 C 2.941406 -3.75 3.269531 -3.601562 3.585938 -3.808594 C 3.855469 -4.035156 3.855469 -4.335938 3.945312 -4.636719 C 4.003906 -4.90625 3.839844 -5.191406 3.570312 -5.265625 C 3.285156 -5.339844 3 -5.160156 2.925781 -4.890625 C 2.578125 -5.023438 2.160156 -5.128906 1.785156 -5.054688 C 1.441406 -4.996094 1.171875 -4.800781 0.976562 -4.515625 C 0.421875 -3.765625 0.195312 -2.070312 0.570312 -1.261719 C 0.886719 -0.554688 1.605469 -0.328125 2.324219 -0.285156 C 2.835938 -0.253906 3.300781 -0.300781 3.675781 -0.691406 C 3.886719 -0.898438 3.871094 -1.230469 3.675781 -1.425781 C 3.464844 -1.621094 3.136719 -1.621094 2.925781 -1.410156 C 2.671875 -1.15625 1.664062 -1.363281 1.515625 -1.695312 C 1.335938 -2.070312 1.515625 -3.976562 1.980469 -4.035156 Z M 1.980469 -4.035156 "/></g></g></g><g fill="#ffffff" fill-opacity="1"><g transform="translate(145.932376, 256.284358)"><g><path d="M 4.589844 -0.613281 C 4.558594 -1.621094 4.605469 -2.640625 4.5 -3.644531 C 4.425781 -4.15625 4.273438 -4.695312 3.824219 -4.949219 C 3.40625 -5.191406 2.878906 -5.144531 2.355469 -4.921875 C 2.070312 -4.800781 1.769531 -4.621094 1.5 -4.453125 C 1.46875 -5.234375 1.441406 -6.015625 1.425781 -6.734375 C 1.410156 -7.019531 1.171875 -7.246094 0.886719 -7.230469 C 0.601562 -7.230469 0.375 -6.988281 0.375 -6.703125 C 0.421875 -4.828125 0.585938 -2.59375 0.480469 -0.71875 C 0.464844 -0.433594 0.691406 -0.179688 0.976562 -0.164062 C 1.261719 -0.148438 1.515625 -0.375 1.53125 -0.660156 C 1.574219 -1.46875 1.574219 -2.355469 1.546875 -3.238281 C 1.828125 -3.421875 2.175781 -3.660156 2.535156 -3.855469 C 2.714844 -3.945312 2.878906 -4.019531 3.058594 -4.066406 C 3.40625 -4.125 3.40625 -3.824219 3.449219 -3.539062 C 3.554688 -2.550781 3.511719 -1.574219 3.539062 -0.585938 C 3.554688 -0.300781 3.796875 -0.0585938 4.078125 -0.0742188 C 4.378906 -0.0898438 4.605469 -0.328125 4.589844 -0.613281 Z M 4.589844 -0.613281 "/></g></g></g><g fill="#ffffff" fill-opacity="1"><g transform="translate(154.002499, 256.284358)"><g><path d="M 4.53125 -3.015625 C 4.453125 -3.496094 4.304688 -3.855469 4.09375 -4.078125 C 3.734375 -4.441406 3.210938 -4.589844 2.65625 -4.589844 C 2.203125 -4.589844 1.753906 -4.5 1.441406 -4.425781 C 1.425781 -4.453125 1.425781 -4.5 1.425781 -4.546875 C 1.378906 -4.828125 1.125 -5.023438 0.839844 -4.996094 C 0.554688 -4.964844 0.34375 -4.710938 0.390625 -4.410156 C 0.480469 -3.628906 0.464844 -3.179688 0.523438 -2.488281 C 0.585938 -1.726562 0.703125 -0.898438 0.613281 0.105469 C 0.601562 0.390625 0.808594 0.644531 1.09375 0.660156 C 1.378906 0.691406 1.636719 0.480469 1.664062 0.195312 C 1.753906 -0.871094 1.621094 -1.753906 1.558594 -2.566406 C 1.546875 -2.863281 1.53125 -3.105469 1.515625 -3.359375 C 1.753906 -3.433594 2.203125 -3.554688 2.65625 -3.554688 C 3.359375 -3.554688 3.496094 -3.105469 3.539062 -2.550781 C 3.585938 -1.816406 3.511719 -0.914062 3.433594 -0.238281 C 3.40625 0.0585938 3.613281 0.316406 3.898438 0.34375 C 4.183594 0.375 4.441406 0.164062 4.46875 -0.121094 C 4.558594 -0.988281 4.664062 -2.191406 4.53125 -3.015625 Z M 4.53125 -3.015625 "/></g></g></g><g fill="#ffffff" fill-opacity="1"><g transform="translate(162.07262, 256.284358)"><g><path d="M 0.40625 -2.65625 C 0.164062 -0.601562 2.324219 0.523438 4.09375 -0.328125 C 4.726562 -0.660156 5.203125 -1.214844 5.296875 -1.949219 C 5.476562 -3.34375 4.785156 -4.648438 3.164062 -4.828125 C 1.859375 -4.980469 0.554688 -3.914062 0.40625 -2.65625 Z M 3.613281 -1.261719 C 2.714844 -0.796875 1.304688 -1.320312 1.441406 -2.535156 C 1.53125 -3.253906 2.265625 -3.898438 3.015625 -3.796875 C 3.886719 -3.675781 4.363281 -2.984375 4.261719 -2.085938 C 4.214844 -1.695312 3.945312 -1.425781 3.613281 -1.261719 Z M 3.613281 -1.261719 "/></g></g></g><g fill="#ffffff" fill-opacity="1"><g transform="translate(170.862735, 256.284358)"><g><path d="M 2.789062 -0.855469 C 2.234375 -0.765625 1.875 -0.796875 1.679688 -1.003906 C 1.46875 -1.214844 1.441406 -1.558594 1.441406 -1.921875 C 1.425781 -3.253906 1.648438 -5.445312 1.621094 -6.78125 C 1.605469 -7.066406 1.363281 -7.289062 1.078125 -7.273438 C 0.796875 -7.273438 0.554688 -7.035156 0.570312 -6.734375 C 0.613281 -5.414062 0.375 -3.238281 0.390625 -1.90625 C 0.40625 -1.246094 0.554688 -0.660156 0.929688 -0.285156 C 1.304688 0.105469 1.921875 0.34375 2.953125 0.179688 C 3.238281 0.136719 3.433594 -0.136719 3.390625 -0.421875 C 3.34375 -0.703125 3.074219 -0.898438 2.789062 -0.855469 Z M 2.789062 -0.855469 "/></g></g></g><g fill="#ffffff" fill-opacity="1"><g transform="translate(177.612849, 256.284358)"><g><path d="M 0.40625 -2.65625 C 0.164062 -0.601562 2.324219 0.523438 4.09375 -0.328125 C 4.726562 -0.660156 5.203125 -1.214844 5.296875 -1.949219 C 5.476562 -3.34375 4.785156 -4.648438 3.164062 -4.828125 C 1.859375 -4.980469 0.554688 -3.914062 0.40625 -2.65625 Z M 3.613281 -1.261719 C 2.714844 -0.796875 1.304688 -1.320312 1.441406 -2.535156 C 1.53125 -3.253906 2.265625 -3.898438 3.015625 -3.796875 C 3.886719 -3.675781 4.363281 -2.984375 4.261719 -2.085938 C 4.214844 -1.695312 3.945312 -1.425781 3.613281 -1.261719 Z M 3.613281 -1.261719 "/></g></g></g><g fill="#ffffff" fill-opacity="1"><g transform="translate(186.402964, 256.284358)"><g><path d="M 4.066406 -5.160156 C 3.78125 -5.175781 3.539062 -4.949219 3.523438 -4.648438 C 3.523438 -4.425781 3.511719 -4.214844 3.511719 -3.988281 C 3.375 -4.109375 3.210938 -4.214844 3.015625 -4.320312 C 1.648438 -5.039062 0.238281 -3.988281 0.238281 -2.414062 C 0.238281 -1.261719 0.976562 -0.179688 1.921875 -0.015625 C 2.476562 0.0742188 3.074219 -0.121094 3.449219 -0.496094 C 3.421875 0.0898438 3.421875 0.675781 3.285156 1.214844 C 3.058594 2.023438 2.128906 2.011719 1.558594 1.515625 C 1.351562 1.335938 1.019531 1.363281 0.824219 1.574219 C 0.644531 1.800781 0.660156 2.128906 0.886719 2.308594 C 2.039062 3.300781 3.855469 3.105469 4.289062 1.484375 C 4.425781 0.976562 4.425781 0.433594 4.46875 -0.0898438 C 4.589844 -1.605469 4.53125 -3.105469 4.574219 -4.636719 C 4.574219 -4.921875 4.351562 -5.160156 4.066406 -5.160156 Z M 2.714844 -1.246094 C 2.503906 -1.078125 2.296875 -1.003906 2.101562 -1.035156 C 1.515625 -1.140625 1.289062 -1.949219 1.289062 -2.414062 C 1.289062 -3.164062 1.890625 -3.734375 2.535156 -3.390625 C 3.121094 -3.089844 3.328125 -2.59375 3.480469 -2.265625 C 3.328125 -1.875 3.046875 -1.484375 2.714844 -1.246094 Z M 2.714844 -1.246094 "/></g></g></g><g fill="#ffffff" fill-opacity="1"><g transform="translate(194.443079, 256.284358)"><g><path d="M 3.285156 -0.316406 C 3.285156 0.105469 3.421875 0.796875 3.164062 1.230469 C 2.96875 1.515625 2.578125 1.605469 2.191406 1.605469 C 1.753906 1.605469 1.320312 1.5 1.09375 1.261719 C 0.898438 1.050781 0.570312 1.035156 0.359375 1.246094 C 0.148438 1.441406 0.136719 1.769531 0.34375 1.980469 C 0.71875 2.386719 1.453125 2.640625 2.191406 2.640625 C 2.953125 2.640625 3.691406 2.355469 4.050781 1.785156 C 4.363281 1.273438 4.335938 0.554688 4.335938 -0.015625 C 4.335938 -0.449219 4.335938 -1.003906 4.351562 -1.558594 C 4.378906 -1.90625 4.441406 -2.96875 4.453125 -3.148438 C 4.453125 -3.449219 4.261719 -3.734375 3.914062 -3.734375 C 3.886719 -3.734375 3.449219 -3.71875 3.40625 -3.253906 C 3.359375 -2.804688 3.328125 -2.21875 3.316406 -1.621094 C 3.300781 -1.5 3.195312 -1.441406 3.074219 -1.363281 C 2.699219 -1.15625 2.054688 -1.035156 1.679688 -1.363281 C 1.378906 -1.664062 1.441406 -2.191406 1.441406 -2.65625 C 1.441406 -3.195312 1.441406 -3.71875 1.46875 -4.261719 C 1.5 -4.558594 1.273438 -4.800781 0.988281 -4.828125 C 0.703125 -4.84375 0.449219 -4.636719 0.433594 -4.335938 C 0.390625 -3.78125 0.40625 -3.238281 0.390625 -2.671875 C 0.375 -1.5 0.511719 -0.433594 1.90625 -0.148438 C 2.28125 -0.0742188 2.820312 -0.136719 3.285156 -0.316406 Z M 3.285156 -0.316406 "/></g></g></g><g fill="#ffffff" fill-opacity="1"><g transform="translate(202.363191, 256.284358)"><g/></g></g><g fill="#ffffff" fill-opacity="1"><g transform="translate(209.503308, 256.284358)"><g><path d="M 3.839844 -5.566406 C 3.601562 -5.699219 3.390625 -5.863281 3.179688 -5.96875 C 2.894531 -6.105469 2.59375 -6.164062 2.296875 -6.121094 C 1.363281 -5.96875 0.75 -4.964844 0.539062 -3.976562 C 0.421875 -3.433594 0.328125 -2.714844 0.421875 -2.070312 C 0.496094 -1.574219 0.660156 -1.109375 0.976562 -0.765625 C 1.484375 -0.164062 2.445312 0.046875 3.359375 -0.121094 C 4.261719 -0.269531 5.101562 -0.796875 5.414062 -1.484375 C 5.535156 -1.753906 5.414062 -2.054688 5.160156 -2.175781 C 4.890625 -2.296875 4.589844 -2.191406 4.46875 -1.921875 C 4.273438 -1.5 3.734375 -1.246094 3.179688 -1.140625 C 2.128906 -0.960938 1.484375 -1.335938 1.441406 -2.460938 C 1.394531 -3.121094 1.5 -3.886719 1.828125 -4.5 C 1.949219 -4.710938 2.144531 -5.039062 2.429688 -5.085938 C 2.609375 -5.113281 2.761719 -5.011719 2.910156 -4.921875 C 3.269531 -4.710938 3.628906 -4.453125 4.035156 -4.363281 C 4.066406 -4.351562 4.484375 -4.273438 4.648438 -4.679688 C 4.753906 -5.128906 4.90625 -5.59375 5.101562 -6.046875 C 5.21875 -6.316406 5.085938 -6.613281 4.828125 -6.734375 C 4.558594 -6.839844 4.261719 -6.71875 4.140625 -6.449219 C 4.019531 -6.148438 3.929688 -5.863281 3.839844 -5.566406 Z M 3.839844 -5.566406 "/></g></g></g><g fill="#ffffff" fill-opacity="1"><g transform="translate(218.263428, 256.284358)"><g><path d="M 2.113281 -5.128906 C 1.230469 -4.949219 0.78125 -4.066406 0.570312 -3.285156 C 0.105469 -1.636719 0.480469 0.148438 2.324219 0.691406 C 2.609375 0.765625 2.894531 0.613281 2.984375 0.328125 C 3.058594 0.0585938 2.894531 -0.226562 2.625 -0.316406 C 1.828125 -0.539062 1.5 -1.140625 1.441406 -1.828125 C 2.28125 -1.890625 3.238281 -1.828125 3.839844 -2.324219 C 5.113281 -3.628906 3.613281 -5.445312 2.113281 -5.128906 Z M 3.121094 -3.089844 C 2.878906 -2.941406 2.070312 -2.925781 1.546875 -2.878906 C 1.574219 -3.195312 1.726562 -3.511719 1.890625 -3.765625 C 1.996094 -3.929688 2.128906 -4.066406 2.324219 -4.109375 C 2.910156 -4.230469 3.570312 -3.601562 3.121094 -3.089844 Z M 3.121094 -3.089844 "/></g></g></g><g fill="#ffffff" fill-opacity="1"><g transform="translate(225.928548, 256.284358)"><g><path d="M 4.53125 -3.015625 C 4.453125 -3.496094 4.304688 -3.855469 4.09375 -4.078125 C 3.734375 -4.441406 3.210938 -4.589844 2.65625 -4.589844 C 2.203125 -4.589844 1.753906 -4.5 1.441406 -4.425781 C 1.425781 -4.453125 1.425781 -4.5 1.425781 -4.546875 C 1.378906 -4.828125 1.125 -5.023438 0.839844 -4.996094 C 0.554688 -4.964844 0.34375 -4.710938 0.390625 -4.410156 C 0.480469 -3.628906 0.464844 -3.179688 0.523438 -2.488281 C 0.585938 -1.726562 0.703125 -0.898438 0.613281 0.105469 C 0.601562 0.390625 0.808594 0.644531 1.09375 0.660156 C 1.378906 0.691406 1.636719 0.480469 1.664062 0.195312 C 1.753906 -0.871094 1.621094 -1.753906 1.558594 -2.566406 C 1.546875 -2.863281 1.53125 -3.105469 1.515625 -3.359375 C 1.753906 -3.433594 2.203125 -3.554688 2.65625 -3.554688 C 3.359375 -3.554688 3.496094 -3.105469 3.539062 -2.550781 C 3.585938 -1.816406 3.511719 -0.914062 3.433594 -0.238281 C 3.40625 0.0585938 3.613281 0.316406 3.898438 0.34375 C 4.183594 0.375 4.441406 0.164062 4.46875 -0.121094 C 4.558594 -0.988281 4.664062 -2.191406 4.53125 -3.015625 Z M 4.53125 -3.015625 "/></g></g></g><g fill="#ffffff" fill-opacity="1"><g transform="translate(233.998669, 256.284358)"><g><path d="M 3.808594 -0.421875 C 3.78125 -0.703125 3.511719 -0.898438 3.226562 -0.855469 C 2.671875 -0.765625 2.308594 -0.796875 2.113281 -1.003906 C 1.90625 -1.214844 1.875 -1.558594 1.875 -1.921875 C 1.859375 -2.535156 1.90625 -3.316406 1.949219 -4.125 C 2.25 -4.140625 2.535156 -4.140625 2.820312 -4.140625 C 3.105469 -4.140625 3.34375 -4.378906 3.328125 -4.664062 C 3.328125 -4.949219 3.105469 -5.175781 2.804688 -5.175781 C 2.550781 -5.175781 2.28125 -5.175781 2.011719 -5.160156 C 2.039062 -5.761719 2.054688 -6.316406 2.054688 -6.78125 C 2.039062 -7.066406 1.800781 -7.289062 1.515625 -7.273438 C 1.214844 -7.273438 0.988281 -7.019531 1.003906 -6.734375 C 1.019531 -6.269531 1.003906 -5.683594 0.960938 -5.070312 C 0.824219 -5.039062 0.675781 -5.011719 0.539062 -4.964844 C 0.269531 -4.890625 0.105469 -4.605469 0.179688 -4.320312 C 0.253906 -4.050781 0.539062 -3.886719 0.808594 -3.960938 C 0.839844 -3.976562 0.871094 -3.976562 0.898438 -3.988281 C 0.855469 -3.226562 0.824219 -2.488281 0.824219 -1.90625 C 0.839844 -1.246094 0.988281 -0.660156 1.363281 -0.285156 C 1.738281 0.105469 2.355469 0.34375 3.375 0.179688 C 3.675781 0.136719 3.855469 -0.136719 3.808594 -0.421875 Z M 3.808594 -0.421875 "/></g></g></g><g fill="#ffffff" fill-opacity="1"><g transform="translate(241.123783, 256.284358)"><g><path d="M 2.113281 -5.128906 C 1.230469 -4.949219 0.78125 -4.066406 0.570312 -3.285156 C 0.105469 -1.636719 0.480469 0.148438 2.324219 0.691406 C 2.609375 0.765625 2.894531 0.613281 2.984375 0.328125 C 3.058594 0.0585938 2.894531 -0.226562 2.625 -0.316406 C 1.828125 -0.539062 1.5 -1.140625 1.441406 -1.828125 C 2.28125 -1.890625 3.238281 -1.828125 3.839844 -2.324219 C 5.113281 -3.628906 3.613281 -5.445312 2.113281 -5.128906 Z M 3.121094 -3.089844 C 2.878906 -2.941406 2.070312 -2.925781 1.546875 -2.878906 C 1.574219 -3.195312 1.726562 -3.511719 1.890625 -3.765625 C 1.996094 -3.929688 2.128906 -4.066406 2.324219 -4.109375 C 2.910156 -4.230469 3.570312 -3.601562 3.121094 -3.089844 Z M 3.121094 -3.089844 "/></g></g></g><g fill="#ffffff" fill-opacity="1"><g transform="translate(248.788898, 256.284358)"><g><path d="M 3.148438 -4.605469 C 3.058594 -4.890625 2.773438 -5.039062 2.488281 -4.949219 C 2.085938 -4.816406 1.738281 -4.621094 1.425781 -4.351562 C 1.425781 -4.46875 1.425781 -4.589844 1.425781 -4.710938 C 1.441406 -4.996094 1.214844 -5.234375 0.929688 -5.25 C 0.628906 -5.25 0.390625 -5.023438 0.390625 -4.738281 C 0.34375 -3.421875 0.703125 -2.113281 0.554688 -0.796875 C 0.523438 -0.511719 0.71875 -0.238281 1.003906 -0.210938 C 1.289062 -0.179688 1.558594 -0.390625 1.589844 -0.675781 C 1.679688 -1.394531 1.605469 -2.128906 1.546875 -2.851562 C 1.828125 -3.359375 2.234375 -3.78125 2.804688 -3.960938 C 3.074219 -4.035156 3.238281 -4.335938 3.148438 -4.605469 Z M 3.148438 -4.605469 "/></g></g></g></svg>